<?xml version="1.0" standalone="no"?><!DOCTYPE svg PUBLIC "-//W3C//DTD SVG 1.1//EN" "http://www.w3.org/Graphics/SVG/1.1/DTD/svg11.dtd"><svg t="1698025217605" class="icon" viewBox="0 0 1024 1024" version="1.1" xmlns="http://www.w3.org/2000/svg" p-id="16207" xmlns:xlink="http://www.w3.org/1999/xlink" width="16" height="16"><path d="M673.408 521.386667a32 32 0 0 1-0.042667 45.226666l-116.309333 116.138667 116.309333 116.138667a32 32 0 0 1 3.114667 41.685333l-3.072 3.584a32 32 0 0 1-41.685333 3.114667l-3.584-3.072-116.352-116.224-115.84 115.754666a32 32 0 0 1-45.226667-45.269333l115.754667-115.712-115.754667-115.626667a32 32 0 0 1-3.114667-41.685333l3.072-3.584a32 32 0 0 1 41.685334-3.114667l3.584 3.072 115.84 115.712 116.352-116.181333a32 32 0 0 1 45.226666 0.042667zM512 170.666667c150.186667 0 235.392 96.981333 247.808 214.101333h3.754667c96.682667 0 175.018667 76.245333 175.018666 170.282667S860.245333 725.333333 763.562667 725.333333h-91.434667a31.914667 31.914667 0 0 1-31.658667-27.605333l-0.298666-4.309333c0-16.213333 12.032-29.525333 27.605333-31.658667l5.162667-0.298667h90.624l7.210666-0.213333c57.045333-3.584 102.186667-49.749333 102.186667-106.197333 0-56.405333-45.141333-102.613333-102.186667-106.24l-7.210666-0.170667h-33.066667l-4.309333-0.298667c-15.616-1.962667-28.458667-14.506667-28.458667-30.08 0-108.714667-86.485333-185.088-185.728-185.088-99.242667 0-185.728 77.738667-185.728 185.088 0 15.616-12.8 28.117333-28.458667 30.08l-4.266666 0.298667h-33.109334l-7.210666 0.213333c-54.656 3.413333-98.389333 45.994667-101.973334 99.2l-0.213333 6.997334 0.256 6.997333c3.541333 53.205333 47.274667 95.744 101.973333 99.2l7.168 0.213333h90.453334v0.085334l1.024-0.085334c16.213333 0 29.525333 12.032 31.658666 27.605334l0.298667 4.352a31.957333 31.957333 0 0 1-27.605333 31.616L350.976 725.333333H260.437333c-96.682667 0-175.018667-76.245333-175.018666-170.282666s78.336-170.282667 175.018666-170.282667h3.797334C276.693333 266.88 361.813333 170.666667 512 170.666667z" fill="#707070" p-id="16208"></path></svg>