<?xml version="1.0" standalone="no"?><!DOCTYPE svg PUBLIC "-//W3C//DTD SVG 1.1//EN" "http://www.w3.org/Graphics/SVG/1.1/DTD/svg11.dtd"><svg t="1698025066658" class="icon" viewBox="0 0 1024 1024" version="1.1" xmlns="http://www.w3.org/2000/svg" p-id="19803" xmlns:xlink="http://www.w3.org/1999/xlink" width="16" height="16"><path d="M690.986667 519.936a29.44 29.44 0 0 1 40.234666 0 26.24 26.24 0 0 1 2.986667 35.072l-2.986667 3.328-256 244.394667a29.44 29.44 0 0 1-39.808 0.384l-3.072-3.328-85.333333-108.586667a26.368 26.368 0 0 1 5.717333-37.973333 29.44 29.44 0 0 1 36.736 2.090666l3.072 3.285334 65.664 83.584 232.789334-222.250667zM512 170.666667c150.186667 0 235.392 96.981333 247.808 214.101333h3.754667c96.682667 0 175.018667 76.245333 175.018666 170.282667S860.245333 725.333333 763.562667 725.333333h-145.536l142.677333-136.106666a68.949333 68.949333 0 0 0 0-100.138667 72.106667 72.106667 0 0 0-99.157333 0l-198.826667 189.781333-36.650667-46.592a72.021333 72.021333 0 0 0-98.176-13.781333 68.992 68.992 0 0 0-14.421333 99.072l6.144 7.765333H260.437333c-96.682667 0-175.018667-76.245333-175.018666-170.282666s78.336-170.282667 175.018666-170.282667h3.797334C276.693333 266.88 361.813333 170.666667 512 170.666667z" fill="#515151" p-id="19804"></path></svg>