<?xml version="1.0" standalone="no"?><!DOCTYPE svg PUBLIC "-//W3C//DTD SVG 1.1//EN" "http://www.w3.org/Graphics/SVG/1.1/DTD/svg11.dtd"><svg t="1698025049700" class="icon" viewBox="0 0 1024 1024" version="1.1" xmlns="http://www.w3.org/2000/svg" p-id="18579" xmlns:xlink="http://www.w3.org/1999/xlink" width="16" height="16"><path d="M908 161.3L862.7 116a4 4 0 0 0-5.6 0L767 206.1c-74.6-50.6-177.7-42.9-243.7 23.1l-82 82a12 12 0 0 0 0 17l254.5 254.5a12 12 0 0 0 17 0l82-82c66-66 73.7-169.1 23.1-243.7l90.1-90.1a4 4 0 0 0 0-5.6zM545.9 534.6a4 4 0 0 0-5.6 0L480.9 594 430 543.1l59.4-59.4a4 4 0 0 0 0-5.6l-45.3-45.3a3.9 3.9 0 0 0-5.6 0l-59.4 59.4-50.9-50.9a12 12 0 0 0-17 0l-82 82c-66 66-73.7 169.1-23.1 243.7L116 857.1a4 4 0 0 0 0 5.6l45.3 45.3a4 4 0 0 0 5.6 0l90.1-90.1c74.6 50.6 177.7 42.9 243.7-23.1l82-82a12 12 0 0 0 0-17l-50.9-50.9 59.4-59.4a3.9 3.9 0 0 0 0-5.6z" p-id="18580" fill="#515151"></path></svg>