<?xml version="1.0" standalone="no"?><!DOCTYPE svg PUBLIC "-//W3C//DTD SVG 1.1//EN" "http://www.w3.org/Graphics/SVG/1.1/DTD/svg11.dtd"><svg t="1698030268020" class="icon" viewBox="0 0 1024 1024" version="1.1" xmlns="http://www.w3.org/2000/svg" p-id="43896" xmlns:xlink="http://www.w3.org/1999/xlink" width="16" height="16"><path d="M897.20949 444.481299c-95.450139-109.085873-197.718145-136.357341-197.718145-259.078949C699.491345 55.862876 590.405471-46.40513 392.687326 21.77354 181.333447 103.587945 38.158238 280.852489 38.158238 512.65997c0 279.53255 231.80748 511.34003 511.340031 511.34003 47.72507 0 88.632272-6.817867 136.357341-20.453601 211.353879-61.360804 388.618423-354.529088 211.35388-559.0651z m-218.171747-54.542937c-27.271468 40.907202-115.90374 20.453601-143.175208-34.089335-27.271468-47.72507-20.453601-115.90374 27.271468-149.993076 27.271468-20.453601 68.178671 0 74.996538 34.089336 6.817867 27.271468 20.453601 61.360804 40.907202 88.632272 13.635734 20.453601 13.635734 47.72507 0 61.360803z" fill="#ea9518" p-id="43897" data-spm-anchor-id="a313x.search_index.0.i100.22ab3a81106z2Q" class="selected"></path><path d="M331.326523 280.852489m-95.450139 0a95.450139 95.450139 0 1 0 190.900278 0 95.450139 95.450139 0 1 0-190.900278 0Z" fill="#FF4F19" p-id="43898"></path><path d="M358.597991 253.581021m-68.178671 0a68.178671 68.178671 0 1 0 136.357342 0 68.178671 68.178671 0 1 0-136.357342 0Z" fill="#FF8C62" p-id="43899"></path><path d="M235.876384 526.295704m-95.450139 0a95.450139 95.450139 0 1 0 190.900278 0 95.450139 95.450139 0 1 0-190.900278 0Z" fill="#FFCD00" p-id="43900"></path><path d="M256.329985 505.842102m-68.178671 0a68.178671 68.178671 0 1 0 136.357341 0 68.178671 68.178671 0 1 0-136.357341 0Z" fill="#FFE671" p-id="43901"></path><path d="M344.962257 758.103184m-95.450139 0a95.450139 95.450139 0 1 0 190.900278 0 95.450139 95.450139 0 1 0-190.900278 0Z" fill="#00C37A" p-id="43902"></path><path d="M372.233725 737.649583m-68.178671 0a68.178671 68.178671 0 1 0 136.357342 0 68.178671 68.178671 0 1 0-136.357342 0Z" fill="#60DC4D" p-id="43903"></path><path d="M597.223338 839.917589m-95.450139 0a95.450139 95.450139 0 1 0 190.900278 0 95.450139 95.450139 0 1 0-190.900278 0Z" fill="#4CD7FF" p-id="43904"></path><path d="M617.67694 819.463988m-68.178671 0a68.178671 68.178671 0 1 0 136.357341 0 68.178671 68.178671 0 1 0-136.357341 0Z" fill="#AEEFFF" p-id="43905"></path><path d="M774.487882 662.653045m-95.450139 0a95.450139 95.450139 0 1 0 190.900278 0 95.450139 95.450139 0 1 0-190.900278 0Z" fill="#009BCA" p-id="43906"></path><path d="M801.759351 635.381577m-68.178671 0a68.178671 68.178671 0 1 0 136.357341 0 68.178671 68.178671 0 1 0-136.357341 0Z" fill="#4CD7FF" p-id="43907"></path></svg>