<?xml version="1.0" standalone="no"?><!DOCTYPE svg PUBLIC "-//W3C//DTD SVG 1.1//EN" "http://www.w3.org/Graphics/SVG/1.1/DTD/svg11.dtd"><svg t="1698030814488" class="icon" viewBox="0 0 1024 1024" version="1.1" xmlns="http://www.w3.org/2000/svg" p-id="16215" xmlns:xlink="http://www.w3.org/1999/xlink" width="16" height="16"><path d="M821.333333 469.418667c41.258667 0 74.666667 33.408 74.666667 74.666666v277.333334a74.666667 74.666667 0 0 1-74.666667 74.666666h-192a74.666667 74.666667 0 0 1-74.666666-74.666666v-277.333334c0-41.258667 33.450667-74.666667 74.666666-74.666666h192z m-425.898666 171.178666c41.258667 0 74.666667 33.450667 74.666666 74.666667v106.154667a74.666667 74.666667 0 0 1-74.666666 74.666666H202.837333a74.666667 74.666667 0 0 1-74.666666-74.666666v-106.154667c0-41.216 33.408-74.666667 74.666666-74.666667h192.597334zM394.837333 128c41.216 0 74.666667 33.450667 74.666667 74.666667v277.333333a74.666667 74.666667 0 0 1-68.565333 74.410667L394.837333 554.666667h-192a74.666667 74.666667 0 0 1-74.666666-74.666667v-277.333333c0-41.216 33.408-74.666667 74.666666-74.666667h192z m426.496 0c41.258667 0 74.666667 33.450667 74.666667 74.666667v106.666666A74.666667 74.666667 0 0 1 821.333333 384h-192A74.666667 74.666667 0 0 1 554.666667 309.333333v-106.666666c0-41.216 33.450667-74.666667 74.666666-74.666667h192z" fill="#515151" p-id="16216"></path></svg>