<?xml version="1.0" standalone="no"?><!DOCTYPE svg PUBLIC "-//W3C//DTD SVG 1.1//EN" "http://www.w3.org/Graphics/SVG/1.1/DTD/svg11.dtd"><svg t="1697942444793" class="icon" viewBox="0 0 1025 1024" version="1.1" xmlns="http://www.w3.org/2000/svg" p-id="2944" xmlns:xlink="http://www.w3.org/1999/xlink" width="16.015625" height="16"><path d="M831.999095 961.537463l-639.994116 0c-105.879408 0-192.004989-87.454919-192.004989-194.967602L-1.0e-05 376.625446c0-35.923864 28.629387-64.991248 64.00678-64.991248 35.370229 0 63.993476 29.067384 63.993476 64.991248l0 389.945438c0 35.795945 28.688742 64.985107 64.004733 64.985107l639.994116 0c35.313944 0 64.00064-29.189163 64.00064-64.985107L895.999734 376.625446c0-35.923864 28.627341-64.991248 63.993476-64.991248 35.382509 0 64.00678 29.067384 64.00678 64.991248l0 389.945438C1024.001014 874.082544 937.872363 961.537463 831.999095 961.537463z" fill="#515151" p-id="2945"></path><path d="M534.623306 74.650698c-12.43172-12.633321-32.812864-12.633321-45.245607 0l-210.747741 214.011221c-12.432743 12.626158-8.249267 22.972279 9.375981 22.972279l63.995523 0c17.628318 0 32.007483 14.60021 32.007483 32.492554l0 129.985565c0 17.897461 14.368932 32.4946 31.99725 32.4946l191.990662 0c17.630365 0 32.007483-14.59714 32.007483-32.4946L640.00434 344.126752c0-17.892344 14.369955-32.492554 32.00032-32.492554l63.990406 0c17.629342 0 21.822028-10.346122 9.374958-22.972279L534.623306 74.650698z" fill="#515151" p-id="2946"></path><path d="M640.00434 604.093789c0 17.895414-14.31367 32.492554-32.007483 32.492554-17.685626 0-31.996226-14.59714-31.996226-32.492554 0-18.026403 14.309577-32.496647 31.996226-32.496647C625.690669 571.597142 640.00434 586.067386 640.00434 604.093789z" fill="#515151" p-id="2947"></path><path d="M448.000374 604.093789c0 17.895414-14.308554 32.492554-31.995203 32.492554-17.687673 0-31.99725-14.59714-31.99725-32.492554 0-18.026403 14.308554-32.496647 31.99725-32.496647C433.69182 571.597142 448.000374 586.067386 448.000374 604.093789z" fill="#515151" p-id="2948"></path><path d="M416.005171 571.597142l191.990662 0 0 64.989201-191.990662 0 0-64.989201Z" fill="#515151" p-id="2949"></path></svg>